<mxfile host="app.diagrams.net" modified="2021-08-31T10:26:35.075Z" agent="5.0 (Windows NT 10.0; Win64; x64) AppleWebKit/537.36 (KHTML, like Gecko) Chrome/92.0.4515.159 Safari/537.36" etag="03753vqaFGTlkVPn2Yl6" version="15.0.2" type="github">
  <diagram name="Page-1" id="7e0a89b8-554c-2b80-1dc8-d5c74ca68de4">
    <mxGraphModel dx="1483" dy="816" grid="1" gridSize="10" guides="1" tooltips="1" connect="1" arrows="1" fold="1" page="1" pageScale="1" pageWidth="1100" pageHeight="850" background="none" math="0" shadow="0">
      <root>
        <mxCell id="0" />
        <mxCell id="1" parent="0" />
        <mxCell id="vwH4FIgHSPhmtw9--yZb-1" value="" style="rounded=0;whiteSpace=wrap;html=1;" vertex="1" parent="1">
          <mxGeometry x="470" y="159" width="260" height="280" as="geometry" />
        </mxCell>
        <mxCell id="vwH4FIgHSPhmtw9--yZb-2" value="" style="rounded=0;whiteSpace=wrap;html=1;" vertex="1" parent="1">
          <mxGeometry x="480" y="169" width="40" height="40" as="geometry" />
        </mxCell>
        <mxCell id="vwH4FIgHSPhmtw9--yZb-3" value="" style="rounded=0;whiteSpace=wrap;html=1;" vertex="1" parent="1">
          <mxGeometry x="530" y="169" width="40" height="40" as="geometry" />
        </mxCell>
        <mxCell id="vwH4FIgHSPhmtw9--yZb-4" value="" style="rounded=0;whiteSpace=wrap;html=1;" vertex="1" parent="1">
          <mxGeometry x="580" y="169" width="40" height="40" as="geometry" />
        </mxCell>
        <mxCell id="vwH4FIgHSPhmtw9--yZb-5" value="" style="rounded=0;whiteSpace=wrap;html=1;" vertex="1" parent="1">
          <mxGeometry x="630" y="169" width="40" height="40" as="geometry" />
        </mxCell>
        <mxCell id="vwH4FIgHSPhmtw9--yZb-8" value="" style="rounded=0;whiteSpace=wrap;html=1;" vertex="1" parent="1">
          <mxGeometry x="480" y="389" width="40" height="40" as="geometry" />
        </mxCell>
        <mxCell id="vwH4FIgHSPhmtw9--yZb-9" value="" style="rounded=0;whiteSpace=wrap;html=1;" vertex="1" parent="1">
          <mxGeometry x="530" y="389" width="40" height="40" as="geometry" />
        </mxCell>
        <mxCell id="vwH4FIgHSPhmtw9--yZb-22" value="" style="rounded=0;whiteSpace=wrap;html=1;" vertex="1" parent="1">
          <mxGeometry x="680" y="169" width="40" height="40" as="geometry" />
        </mxCell>
        <mxCell id="vwH4FIgHSPhmtw9--yZb-24" value="" style="rounded=0;whiteSpace=wrap;html=1;" vertex="1" parent="1">
          <mxGeometry x="680" y="389" width="40" height="40" as="geometry" />
        </mxCell>
        <mxCell id="vwH4FIgHSPhmtw9--yZb-25" value="" style="rounded=0;whiteSpace=wrap;html=1;" vertex="1" parent="1">
          <mxGeometry x="630" y="389" width="40" height="40" as="geometry" />
        </mxCell>
        <mxCell id="vwH4FIgHSPhmtw9--yZb-26" value="" style="rounded=0;whiteSpace=wrap;html=1;" vertex="1" parent="1">
          <mxGeometry x="580" y="389" width="40" height="40" as="geometry" />
        </mxCell>
        <mxCell id="vwH4FIgHSPhmtw9--yZb-27" value="" style="rounded=0;whiteSpace=wrap;html=1;" vertex="1" parent="1">
          <mxGeometry x="480" y="219" width="40" height="40" as="geometry" />
        </mxCell>
        <mxCell id="vwH4FIgHSPhmtw9--yZb-28" value="" style="rounded=0;whiteSpace=wrap;html=1;" vertex="1" parent="1">
          <mxGeometry x="530" y="219" width="40" height="40" as="geometry" />
        </mxCell>
        <mxCell id="vwH4FIgHSPhmtw9--yZb-29" value="" style="rounded=0;whiteSpace=wrap;html=1;" vertex="1" parent="1">
          <mxGeometry x="680" y="219" width="40" height="40" as="geometry" />
        </mxCell>
        <mxCell id="vwH4FIgHSPhmtw9--yZb-30" value="" style="rounded=0;whiteSpace=wrap;html=1;" vertex="1" parent="1">
          <mxGeometry x="630" y="219" width="40" height="40" as="geometry" />
        </mxCell>
        <mxCell id="vwH4FIgHSPhmtw9--yZb-31" value="" style="rounded=0;whiteSpace=wrap;html=1;" vertex="1" parent="1">
          <mxGeometry x="580" y="219" width="40" height="40" as="geometry" />
        </mxCell>
        <mxCell id="vwH4FIgHSPhmtw9--yZb-43" value="" style="endArrow=none;dashed=1;html=1;" edge="1" parent="1">
          <mxGeometry width="50" height="50" relative="1" as="geometry">
            <mxPoint x="699.5" y="382" as="sourcePoint" />
            <mxPoint x="699.5" y="262" as="targetPoint" />
          </mxGeometry>
        </mxCell>
        <mxCell id="vwH4FIgHSPhmtw9--yZb-44" value="" style="endArrow=none;dashed=1;html=1;" edge="1" parent="1">
          <mxGeometry width="50" height="50" relative="1" as="geometry">
            <mxPoint x="499.5" y="381" as="sourcePoint" />
            <mxPoint x="499.5" y="261" as="targetPoint" />
          </mxGeometry>
        </mxCell>
        <mxCell id="vwH4FIgHSPhmtw9--yZb-45" value="" style="endArrow=none;dashed=1;html=1;" edge="1" parent="1">
          <mxGeometry width="50" height="50" relative="1" as="geometry">
            <mxPoint x="649.5" y="381" as="sourcePoint" />
            <mxPoint x="649.5" y="261" as="targetPoint" />
          </mxGeometry>
        </mxCell>
        <mxCell id="vwH4FIgHSPhmtw9--yZb-46" value="" style="endArrow=none;dashed=1;html=1;" edge="1" parent="1">
          <mxGeometry width="50" height="50" relative="1" as="geometry">
            <mxPoint x="470" y="399" as="sourcePoint" />
            <mxPoint x="470" y="279" as="targetPoint" />
          </mxGeometry>
        </mxCell>
        <mxCell id="vwH4FIgHSPhmtw9--yZb-47" value="" style="endArrow=none;dashed=1;html=1;" edge="1" parent="1">
          <mxGeometry width="50" height="50" relative="1" as="geometry">
            <mxPoint x="599.5" y="381" as="sourcePoint" />
            <mxPoint x="599.5" y="261" as="targetPoint" />
          </mxGeometry>
        </mxCell>
        <mxCell id="vwH4FIgHSPhmtw9--yZb-48" value="" style="endArrow=none;dashed=1;html=1;" edge="1" parent="1">
          <mxGeometry width="50" height="50" relative="1" as="geometry">
            <mxPoint x="549" y="380" as="sourcePoint" />
            <mxPoint x="549" y="260" as="targetPoint" />
          </mxGeometry>
        </mxCell>
        <mxCell id="vwH4FIgHSPhmtw9--yZb-65" style="edgeStyle=orthogonalEdgeStyle;rounded=0;orthogonalLoop=1;jettySize=auto;html=1;exitX=1;exitY=0.5;exitDx=0;exitDy=0;entryX=0;entryY=0.5;entryDx=0;entryDy=0;" edge="1" parent="1" source="vwH4FIgHSPhmtw9--yZb-49" target="vwH4FIgHSPhmtw9--yZb-50">
          <mxGeometry relative="1" as="geometry" />
        </mxCell>
        <mxCell id="vwH4FIgHSPhmtw9--yZb-49" value="1-Bit" style="text;html=1;strokeColor=none;fillColor=none;align=center;verticalAlign=middle;whiteSpace=wrap;rounded=0;" vertex="1" parent="1">
          <mxGeometry x="480" y="179" width="40" height="20" as="geometry" />
        </mxCell>
        <mxCell id="vwH4FIgHSPhmtw9--yZb-66" style="edgeStyle=orthogonalEdgeStyle;rounded=0;orthogonalLoop=1;jettySize=auto;html=1;exitX=1;exitY=0.5;exitDx=0;exitDy=0;entryX=0;entryY=0.5;entryDx=0;entryDy=0;" edge="1" parent="1" source="vwH4FIgHSPhmtw9--yZb-50" target="vwH4FIgHSPhmtw9--yZb-56">
          <mxGeometry relative="1" as="geometry" />
        </mxCell>
        <mxCell id="vwH4FIgHSPhmtw9--yZb-50" value="1-Bit" style="text;html=1;strokeColor=none;fillColor=none;align=center;verticalAlign=middle;whiteSpace=wrap;rounded=0;" vertex="1" parent="1">
          <mxGeometry x="530" y="179" width="40" height="20" as="geometry" />
        </mxCell>
        <mxCell id="vwH4FIgHSPhmtw9--yZb-70" style="edgeStyle=orthogonalEdgeStyle;rounded=0;orthogonalLoop=1;jettySize=auto;html=1;exitX=1;exitY=0.5;exitDx=0;exitDy=0;entryX=0;entryY=0.5;entryDx=0;entryDy=0;" edge="1" parent="1" source="vwH4FIgHSPhmtw9--yZb-52" target="vwH4FIgHSPhmtw9--yZb-53">
          <mxGeometry relative="1" as="geometry" />
        </mxCell>
        <mxCell id="vwH4FIgHSPhmtw9--yZb-52" value="1-Bit" style="text;html=1;strokeColor=none;fillColor=none;align=center;verticalAlign=middle;whiteSpace=wrap;rounded=0;" vertex="1" parent="1">
          <mxGeometry x="480" y="229" width="40" height="20" as="geometry" />
        </mxCell>
        <mxCell id="vwH4FIgHSPhmtw9--yZb-71" style="edgeStyle=orthogonalEdgeStyle;rounded=0;orthogonalLoop=1;jettySize=auto;html=1;exitX=1;exitY=0.5;exitDx=0;exitDy=0;entryX=0;entryY=0.5;entryDx=0;entryDy=0;" edge="1" parent="1" source="vwH4FIgHSPhmtw9--yZb-53" target="vwH4FIgHSPhmtw9--yZb-57">
          <mxGeometry relative="1" as="geometry" />
        </mxCell>
        <mxCell id="vwH4FIgHSPhmtw9--yZb-53" value="1-Bit" style="text;html=1;strokeColor=none;fillColor=none;align=center;verticalAlign=middle;whiteSpace=wrap;rounded=0;" vertex="1" parent="1">
          <mxGeometry x="530" y="229" width="40" height="20" as="geometry" />
        </mxCell>
        <mxCell id="vwH4FIgHSPhmtw9--yZb-54" value="1-Bit" style="text;html=1;strokeColor=none;fillColor=none;align=center;verticalAlign=middle;whiteSpace=wrap;rounded=0;" vertex="1" parent="1">
          <mxGeometry x="680" y="179" width="40" height="20" as="geometry" />
        </mxCell>
        <mxCell id="vwH4FIgHSPhmtw9--yZb-68" style="edgeStyle=orthogonalEdgeStyle;rounded=0;orthogonalLoop=1;jettySize=auto;html=1;exitX=1;exitY=0.5;exitDx=0;exitDy=0;entryX=0;entryY=0.5;entryDx=0;entryDy=0;" edge="1" parent="1" source="vwH4FIgHSPhmtw9--yZb-55" target="vwH4FIgHSPhmtw9--yZb-54">
          <mxGeometry relative="1" as="geometry" />
        </mxCell>
        <mxCell id="vwH4FIgHSPhmtw9--yZb-55" value="1-Bit" style="text;html=1;strokeColor=none;fillColor=none;align=center;verticalAlign=middle;whiteSpace=wrap;rounded=0;" vertex="1" parent="1">
          <mxGeometry x="630" y="179" width="40" height="20" as="geometry" />
        </mxCell>
        <mxCell id="vwH4FIgHSPhmtw9--yZb-67" style="edgeStyle=orthogonalEdgeStyle;rounded=0;orthogonalLoop=1;jettySize=auto;html=1;exitX=1;exitY=0.5;exitDx=0;exitDy=0;entryX=0;entryY=0.5;entryDx=0;entryDy=0;" edge="1" parent="1" source="vwH4FIgHSPhmtw9--yZb-56" target="vwH4FIgHSPhmtw9--yZb-55">
          <mxGeometry relative="1" as="geometry" />
        </mxCell>
        <mxCell id="vwH4FIgHSPhmtw9--yZb-56" value="1-Bit" style="text;html=1;strokeColor=none;fillColor=none;align=center;verticalAlign=middle;whiteSpace=wrap;rounded=0;" vertex="1" parent="1">
          <mxGeometry x="580" y="179" width="40" height="20" as="geometry" />
        </mxCell>
        <mxCell id="vwH4FIgHSPhmtw9--yZb-73" style="edgeStyle=orthogonalEdgeStyle;rounded=0;orthogonalLoop=1;jettySize=auto;html=1;exitX=1;exitY=0.5;exitDx=0;exitDy=0;entryX=0;entryY=0.5;entryDx=0;entryDy=0;" edge="1" parent="1" source="vwH4FIgHSPhmtw9--yZb-57" target="vwH4FIgHSPhmtw9--yZb-58">
          <mxGeometry relative="1" as="geometry" />
        </mxCell>
        <mxCell id="vwH4FIgHSPhmtw9--yZb-57" value="1-Bit" style="text;html=1;strokeColor=none;fillColor=none;align=center;verticalAlign=middle;whiteSpace=wrap;rounded=0;" vertex="1" parent="1">
          <mxGeometry x="580" y="229" width="40" height="20" as="geometry" />
        </mxCell>
        <mxCell id="vwH4FIgHSPhmtw9--yZb-74" style="edgeStyle=orthogonalEdgeStyle;rounded=0;orthogonalLoop=1;jettySize=auto;html=1;exitX=1;exitY=0.5;exitDx=0;exitDy=0;entryX=0;entryY=0.5;entryDx=0;entryDy=0;" edge="1" parent="1" source="vwH4FIgHSPhmtw9--yZb-58" target="vwH4FIgHSPhmtw9--yZb-59">
          <mxGeometry relative="1" as="geometry" />
        </mxCell>
        <mxCell id="vwH4FIgHSPhmtw9--yZb-58" value="1-Bit" style="text;html=1;strokeColor=none;fillColor=none;align=center;verticalAlign=middle;whiteSpace=wrap;rounded=0;" vertex="1" parent="1">
          <mxGeometry x="630" y="229" width="40" height="20" as="geometry" />
        </mxCell>
        <mxCell id="vwH4FIgHSPhmtw9--yZb-59" value="1-Bit" style="text;html=1;strokeColor=none;fillColor=none;align=center;verticalAlign=middle;whiteSpace=wrap;rounded=0;" vertex="1" parent="1">
          <mxGeometry x="680" y="229" width="40" height="20" as="geometry" />
        </mxCell>
        <mxCell id="vwH4FIgHSPhmtw9--yZb-80" style="edgeStyle=orthogonalEdgeStyle;rounded=0;orthogonalLoop=1;jettySize=auto;html=1;exitX=1;exitY=0.5;exitDx=0;exitDy=0;entryX=0;entryY=0.5;entryDx=0;entryDy=0;" edge="1" parent="1" source="vwH4FIgHSPhmtw9--yZb-60" target="vwH4FIgHSPhmtw9--yZb-61">
          <mxGeometry relative="1" as="geometry" />
        </mxCell>
        <mxCell id="vwH4FIgHSPhmtw9--yZb-60" value="1-Bit" style="text;html=1;strokeColor=none;fillColor=none;align=center;verticalAlign=middle;whiteSpace=wrap;rounded=0;" vertex="1" parent="1">
          <mxGeometry x="480" y="399" width="40" height="20" as="geometry" />
        </mxCell>
        <mxCell id="vwH4FIgHSPhmtw9--yZb-81" style="edgeStyle=orthogonalEdgeStyle;rounded=0;orthogonalLoop=1;jettySize=auto;html=1;exitX=1;exitY=0.5;exitDx=0;exitDy=0;entryX=0;entryY=0.5;entryDx=0;entryDy=0;" edge="1" parent="1" source="vwH4FIgHSPhmtw9--yZb-61" target="vwH4FIgHSPhmtw9--yZb-62">
          <mxGeometry relative="1" as="geometry" />
        </mxCell>
        <mxCell id="vwH4FIgHSPhmtw9--yZb-61" value="1-Bit" style="text;html=1;strokeColor=none;fillColor=none;align=center;verticalAlign=middle;whiteSpace=wrap;rounded=0;" vertex="1" parent="1">
          <mxGeometry x="530" y="399" width="40" height="20" as="geometry" />
        </mxCell>
        <mxCell id="vwH4FIgHSPhmtw9--yZb-82" style="edgeStyle=orthogonalEdgeStyle;rounded=0;orthogonalLoop=1;jettySize=auto;html=1;exitX=1;exitY=0.5;exitDx=0;exitDy=0;entryX=0;entryY=0.5;entryDx=0;entryDy=0;" edge="1" parent="1" source="vwH4FIgHSPhmtw9--yZb-62" target="vwH4FIgHSPhmtw9--yZb-63">
          <mxGeometry relative="1" as="geometry" />
        </mxCell>
        <mxCell id="vwH4FIgHSPhmtw9--yZb-62" value="1-Bit" style="text;html=1;strokeColor=none;fillColor=none;align=center;verticalAlign=middle;whiteSpace=wrap;rounded=0;" vertex="1" parent="1">
          <mxGeometry x="580" y="399" width="40" height="20" as="geometry" />
        </mxCell>
        <mxCell id="vwH4FIgHSPhmtw9--yZb-83" style="edgeStyle=orthogonalEdgeStyle;rounded=0;orthogonalLoop=1;jettySize=auto;html=1;exitX=1;exitY=0.5;exitDx=0;exitDy=0;entryX=0;entryY=0.5;entryDx=0;entryDy=0;" edge="1" parent="1" source="vwH4FIgHSPhmtw9--yZb-63" target="vwH4FIgHSPhmtw9--yZb-64">
          <mxGeometry relative="1" as="geometry" />
        </mxCell>
        <mxCell id="vwH4FIgHSPhmtw9--yZb-63" value="1-Bit" style="text;html=1;strokeColor=none;fillColor=none;align=center;verticalAlign=middle;whiteSpace=wrap;rounded=0;" vertex="1" parent="1">
          <mxGeometry x="630" y="399" width="40" height="20" as="geometry" />
        </mxCell>
        <mxCell id="vwH4FIgHSPhmtw9--yZb-64" value="1-Bit" style="text;html=1;strokeColor=none;fillColor=none;align=center;verticalAlign=middle;whiteSpace=wrap;rounded=0;" vertex="1" parent="1">
          <mxGeometry x="680" y="399" width="40" height="20" as="geometry" />
        </mxCell>
        <mxCell id="vwH4FIgHSPhmtw9--yZb-90" value="" style="endArrow=none;startArrow=classic;html=1;endFill=0;" edge="1" parent="1">
          <mxGeometry width="50" height="50" relative="1" as="geometry">
            <mxPoint x="470" y="178" as="sourcePoint" />
            <mxPoint x="420" y="178" as="targetPoint" />
          </mxGeometry>
        </mxCell>
        <mxCell id="vwH4FIgHSPhmtw9--yZb-92" value="" style="endArrow=none;startArrow=classic;html=1;endFill=0;" edge="1" parent="1">
          <mxGeometry width="50" height="50" relative="1" as="geometry">
            <mxPoint x="470" y="218" as="sourcePoint" />
            <mxPoint x="420" y="218" as="targetPoint" />
          </mxGeometry>
        </mxCell>
        <mxCell id="vwH4FIgHSPhmtw9--yZb-93" value="" style="endArrow=none;startArrow=classic;html=1;endFill=0;" edge="1" parent="1">
          <mxGeometry width="50" height="50" relative="1" as="geometry">
            <mxPoint x="470" y="258" as="sourcePoint" />
            <mxPoint x="420" y="258" as="targetPoint" />
          </mxGeometry>
        </mxCell>
        <mxCell id="vwH4FIgHSPhmtw9--yZb-94" value="" style="endArrow=none;startArrow=classic;html=1;endFill=0;" edge="1" parent="1">
          <mxGeometry width="50" height="50" relative="1" as="geometry">
            <mxPoint x="470" y="299" as="sourcePoint" />
            <mxPoint x="420" y="299" as="targetPoint" />
          </mxGeometry>
        </mxCell>
        <mxCell id="vwH4FIgHSPhmtw9--yZb-95" value="" style="endArrow=none;startArrow=classic;html=1;endFill=0;" edge="1" parent="1">
          <mxGeometry width="50" height="50" relative="1" as="geometry">
            <mxPoint x="470" y="339" as="sourcePoint" />
            <mxPoint x="420" y="339" as="targetPoint" />
          </mxGeometry>
        </mxCell>
        <mxCell id="vwH4FIgHSPhmtw9--yZb-96" value="" style="endArrow=none;startArrow=classic;html=1;endFill=0;" edge="1" parent="1">
          <mxGeometry width="50" height="50" relative="1" as="geometry">
            <mxPoint x="470" y="378" as="sourcePoint" />
            <mxPoint x="420" y="378" as="targetPoint" />
          </mxGeometry>
        </mxCell>
        <mxCell id="vwH4FIgHSPhmtw9--yZb-97" value="" style="endArrow=none;startArrow=classic;html=1;endFill=0;" edge="1" parent="1">
          <mxGeometry width="50" height="50" relative="1" as="geometry">
            <mxPoint x="470" y="418" as="sourcePoint" />
            <mxPoint x="420" y="418" as="targetPoint" />
          </mxGeometry>
        </mxCell>
        <mxCell id="vwH4FIgHSPhmtw9--yZb-98" value="" style="endArrow=classic;html=1;" edge="1" parent="1">
          <mxGeometry width="50" height="50" relative="1" as="geometry">
            <mxPoint x="302" y="218.5" as="sourcePoint" />
            <mxPoint x="362" y="218.5" as="targetPoint" />
          </mxGeometry>
        </mxCell>
        <mxCell id="vwH4FIgHSPhmtw9--yZb-101" value="&lt;font style=&quot;font-size: 14px;&quot;&gt;A&lt;/font&gt;" style="edgeLabel;html=1;align=center;verticalAlign=middle;resizable=0;points=[];fontSize=14;" vertex="1" connectable="0" parent="vwH4FIgHSPhmtw9--yZb-98">
          <mxGeometry x="-0.5733" relative="1" as="geometry">
            <mxPoint as="offset" />
          </mxGeometry>
        </mxCell>
        <mxCell id="vwH4FIgHSPhmtw9--yZb-99" value="" style="endArrow=classic;html=1;" edge="1" parent="1">
          <mxGeometry width="50" height="50" relative="1" as="geometry">
            <mxPoint x="302" y="298" as="sourcePoint" />
            <mxPoint x="362" y="298" as="targetPoint" />
          </mxGeometry>
        </mxCell>
        <mxCell id="vwH4FIgHSPhmtw9--yZb-102" value="&lt;font style=&quot;font-size: 14px&quot;&gt;B&lt;/font&gt;" style="edgeLabel;html=1;align=center;verticalAlign=middle;resizable=0;points=[];" vertex="1" connectable="0" parent="vwH4FIgHSPhmtw9--yZb-99">
          <mxGeometry x="-0.5067" relative="1" as="geometry">
            <mxPoint as="offset" />
          </mxGeometry>
        </mxCell>
        <mxCell id="vwH4FIgHSPhmtw9--yZb-100" value="" style="endArrow=classic;html=1;" edge="1" parent="1">
          <mxGeometry width="50" height="50" relative="1" as="geometry">
            <mxPoint x="302" y="378.5" as="sourcePoint" />
            <mxPoint x="362" y="378.5" as="targetPoint" />
          </mxGeometry>
        </mxCell>
        <mxCell id="vwH4FIgHSPhmtw9--yZb-103" value="&lt;font style=&quot;font-size: 15px;&quot;&gt;C&lt;/font&gt;" style="edgeLabel;html=1;align=center;verticalAlign=middle;resizable=0;points=[];fontSize=15;" vertex="1" connectable="0" parent="vwH4FIgHSPhmtw9--yZb-100">
          <mxGeometry x="-0.5733" relative="1" as="geometry">
            <mxPoint as="offset" />
          </mxGeometry>
        </mxCell>
        <mxCell id="vwH4FIgHSPhmtw9--yZb-106" style="edgeStyle=orthogonalEdgeStyle;rounded=0;orthogonalLoop=1;jettySize=auto;html=1;exitX=0.25;exitY=0;exitDx=0;exitDy=0;entryX=0.25;entryY=1;entryDx=0;entryDy=0;fontSize=14;endArrow=blockThin;endFill=1;startArrow=blockThin;startFill=1;" edge="1" parent="1" source="vwH4FIgHSPhmtw9--yZb-105" target="vwH4FIgHSPhmtw9--yZb-1">
          <mxGeometry relative="1" as="geometry" />
        </mxCell>
        <mxCell id="vwH4FIgHSPhmtw9--yZb-107" style="edgeStyle=orthogonalEdgeStyle;rounded=0;orthogonalLoop=1;jettySize=auto;html=1;exitX=0.5;exitY=0;exitDx=0;exitDy=0;entryX=0.5;entryY=1;entryDx=0;entryDy=0;fontSize=14;endArrow=blockThin;endFill=1;startArrow=blockThin;startFill=1;" edge="1" parent="1" source="vwH4FIgHSPhmtw9--yZb-105" target="vwH4FIgHSPhmtw9--yZb-1">
          <mxGeometry relative="1" as="geometry" />
        </mxCell>
        <mxCell id="vwH4FIgHSPhmtw9--yZb-108" style="edgeStyle=orthogonalEdgeStyle;rounded=0;orthogonalLoop=1;jettySize=auto;html=1;exitX=0.75;exitY=0;exitDx=0;exitDy=0;entryX=0.75;entryY=1;entryDx=0;entryDy=0;fontSize=14;endArrow=blockThin;endFill=1;startArrow=blockThin;startFill=1;" edge="1" parent="1" source="vwH4FIgHSPhmtw9--yZb-105" target="vwH4FIgHSPhmtw9--yZb-1">
          <mxGeometry relative="1" as="geometry" />
        </mxCell>
        <mxCell id="vwH4FIgHSPhmtw9--yZb-163" value="" style="edgeStyle=orthogonalEdgeStyle;rounded=0;orthogonalLoop=1;jettySize=auto;html=1;fontSize=32;startArrow=classicThin;startFill=1;endArrow=openThin;endFill=0;strokeWidth=1;" edge="1" parent="1" source="vwH4FIgHSPhmtw9--yZb-105" target="vwH4FIgHSPhmtw9--yZb-156">
          <mxGeometry relative="1" as="geometry" />
        </mxCell>
        <mxCell id="vwH4FIgHSPhmtw9--yZb-167" style="edgeStyle=orthogonalEdgeStyle;rounded=0;orthogonalLoop=1;jettySize=auto;html=1;exitX=1;exitY=0.5;exitDx=0;exitDy=0;fontSize=32;startArrow=none;startFill=0;endArrow=none;endFill=0;strokeWidth=1;" edge="1" parent="1" source="vwH4FIgHSPhmtw9--yZb-105">
          <mxGeometry relative="1" as="geometry">
            <mxPoint x="800" y="508.28571428571445" as="targetPoint" />
          </mxGeometry>
        </mxCell>
        <mxCell id="vwH4FIgHSPhmtw9--yZb-105" value="&lt;font style=&quot;font-size: 17px&quot;&gt;Sense Amplifier&lt;/font&gt;" style="rounded=0;whiteSpace=wrap;html=1;fontSize=14;" vertex="1" parent="1">
          <mxGeometry x="470" y="479" width="260" height="60" as="geometry" />
        </mxCell>
        <mxCell id="vwH4FIgHSPhmtw9--yZb-160" style="edgeStyle=orthogonalEdgeStyle;rounded=0;orthogonalLoop=1;jettySize=auto;html=1;exitX=0.75;exitY=1;exitDx=0;exitDy=0;entryX=0.25;entryY=1;entryDx=0;entryDy=0;fontSize=32;startArrow=classicThin;startFill=1;endArrow=blockThin;endFill=1;strokeWidth=1;" edge="1" parent="1" source="vwH4FIgHSPhmtw9--yZb-110" target="vwH4FIgHSPhmtw9--yZb-156">
          <mxGeometry relative="1" as="geometry" />
        </mxCell>
        <mxCell id="vwH4FIgHSPhmtw9--yZb-161" style="edgeStyle=orthogonalEdgeStyle;rounded=0;orthogonalLoop=1;jettySize=auto;html=1;exitX=0.5;exitY=1;exitDx=0;exitDy=0;entryX=0.5;entryY=1;entryDx=0;entryDy=0;fontSize=32;startArrow=classicThin;startFill=1;endArrow=classicThin;endFill=1;strokeWidth=1;" edge="1" parent="1" source="vwH4FIgHSPhmtw9--yZb-110" target="vwH4FIgHSPhmtw9--yZb-156">
          <mxGeometry relative="1" as="geometry" />
        </mxCell>
        <mxCell id="vwH4FIgHSPhmtw9--yZb-162" style="edgeStyle=orthogonalEdgeStyle;rounded=0;orthogonalLoop=1;jettySize=auto;html=1;exitX=0.25;exitY=1;exitDx=0;exitDy=0;entryX=0.75;entryY=1;entryDx=0;entryDy=0;fontSize=32;startArrow=classicThin;startFill=1;endArrow=classicThin;endFill=1;strokeWidth=1;" edge="1" parent="1" source="vwH4FIgHSPhmtw9--yZb-110" target="vwH4FIgHSPhmtw9--yZb-156">
          <mxGeometry relative="1" as="geometry" />
        </mxCell>
        <mxCell id="vwH4FIgHSPhmtw9--yZb-169" style="edgeStyle=orthogonalEdgeStyle;rounded=0;orthogonalLoop=1;jettySize=auto;html=1;exitX=0;exitY=0.5;exitDx=0;exitDy=0;fontSize=32;startArrow=none;startFill=0;endArrow=none;endFill=0;strokeWidth=1;" edge="1" parent="1" source="vwH4FIgHSPhmtw9--yZb-110">
          <mxGeometry relative="1" as="geometry">
            <mxPoint x="800" y="698.2857142857144" as="targetPoint" />
          </mxGeometry>
        </mxCell>
        <mxCell id="vwH4FIgHSPhmtw9--yZb-110" value="" style="shape=trapezoid;perimeter=trapezoidPerimeter;whiteSpace=wrap;html=1;fixedSize=1;fontSize=14;rotation=-180;" vertex="1" parent="1">
          <mxGeometry x="470" y="668" width="260" height="60" as="geometry" />
        </mxCell>
        <mxCell id="vwH4FIgHSPhmtw9--yZb-111" value="" style="shape=trapezoid;perimeter=trapezoidPerimeter;whiteSpace=wrap;html=1;fixedSize=1;fontSize=14;rotation=-90;" vertex="1" parent="1">
          <mxGeometry x="250" y="269" width="280" height="60" as="geometry" />
        </mxCell>
        <mxCell id="vwH4FIgHSPhmtw9--yZb-116" value="&lt;font style=&quot;font-size: 21px&quot;&gt;Column Decorder&lt;/font&gt;" style="text;html=1;strokeColor=none;fillColor=none;align=center;verticalAlign=middle;whiteSpace=wrap;rounded=0;fontSize=14;" vertex="1" parent="1">
          <mxGeometry x="510" y="689.5" width="170" height="19" as="geometry" />
        </mxCell>
        <mxCell id="vwH4FIgHSPhmtw9--yZb-123" value="&lt;font style=&quot;font-size: 16px&quot;&gt;Row&lt;/font&gt;&lt;br&gt;&lt;br&gt;&lt;font style=&quot;font-size: 17px&quot;&gt;D&lt;br&gt;e&lt;br&gt;c&lt;br&gt;o&lt;br&gt;r&lt;br&gt;d&lt;br&gt;e&lt;br&gt;r&lt;/font&gt;" style="text;html=1;strokeColor=none;fillColor=none;align=center;verticalAlign=middle;whiteSpace=wrap;rounded=0;fontSize=14;" vertex="1" parent="1">
          <mxGeometry x="360" y="179" width="60" height="230" as="geometry" />
        </mxCell>
        <mxCell id="vwH4FIgHSPhmtw9--yZb-124" value="Bitcell Array" style="text;html=1;strokeColor=none;fillColor=none;align=center;verticalAlign=middle;whiteSpace=wrap;rounded=0;fontSize=32;fontStyle=1" vertex="1" parent="1">
          <mxGeometry x="470" y="269" width="260" height="100" as="geometry" />
        </mxCell>
        <mxCell id="vwH4FIgHSPhmtw9--yZb-127" value="" style="rounded=0;whiteSpace=wrap;html=1;fontSize=32;" vertex="1" parent="1">
          <mxGeometry x="360" y="459" width="90" height="180" as="geometry" />
        </mxCell>
        <mxCell id="vwH4FIgHSPhmtw9--yZb-166" style="edgeStyle=orthogonalEdgeStyle;rounded=0;orthogonalLoop=1;jettySize=auto;html=1;exitX=0.5;exitY=0;exitDx=0;exitDy=0;entryX=0;entryY=0.75;entryDx=0;entryDy=0;fontSize=32;startArrow=none;startFill=0;endArrow=none;endFill=0;strokeWidth=1;" edge="1" parent="1" source="vwH4FIgHSPhmtw9--yZb-128" target="vwH4FIgHSPhmtw9--yZb-111">
          <mxGeometry relative="1" as="geometry" />
        </mxCell>
        <mxCell id="vwH4FIgHSPhmtw9--yZb-128" value="&lt;font style=&quot;font-size: 16px&quot;&gt;Control and&lt;br&gt;Timing Unit&lt;br&gt;&lt;/font&gt;" style="text;html=1;strokeColor=none;fillColor=none;align=center;verticalAlign=middle;whiteSpace=wrap;rounded=0;fontSize=32;" vertex="1" parent="1">
          <mxGeometry x="360" y="459" width="90" height="180" as="geometry" />
        </mxCell>
        <mxCell id="vwH4FIgHSPhmtw9--yZb-134" value="" style="endArrow=none;html=1;fontSize=32;" edge="1" parent="1">
          <mxGeometry width="50" height="50" relative="1" as="geometry">
            <mxPoint x="450" y="508" as="sourcePoint" />
            <mxPoint x="470" y="508" as="targetPoint" />
          </mxGeometry>
        </mxCell>
        <mxCell id="vwH4FIgHSPhmtw9--yZb-135" value="" style="endArrow=none;html=1;fontSize=32;" edge="1" parent="1">
          <mxGeometry width="50" height="50" relative="1" as="geometry">
            <mxPoint x="450" y="603" as="sourcePoint" />
            <mxPoint x="480" y="603" as="targetPoint" />
          </mxGeometry>
        </mxCell>
        <mxCell id="vwH4FIgHSPhmtw9--yZb-136" value="" style="endArrow=none;html=1;fontSize=32;" edge="1" parent="1">
          <mxGeometry width="50" height="50" relative="1" as="geometry">
            <mxPoint x="405" y="779" as="sourcePoint" />
            <mxPoint x="404.5" y="640" as="targetPoint" />
          </mxGeometry>
        </mxCell>
        <mxCell id="vwH4FIgHSPhmtw9--yZb-137" value="" style="endArrow=none;html=1;fontSize=32;" edge="1" parent="1">
          <mxGeometry width="50" height="50" relative="1" as="geometry">
            <mxPoint x="404.5" y="779" as="sourcePoint" />
            <mxPoint x="799.5" y="779" as="targetPoint" />
          </mxGeometry>
        </mxCell>
        <mxCell id="vwH4FIgHSPhmtw9--yZb-138" value="" style="endArrow=none;html=1;fontSize=32;" edge="1" parent="1">
          <mxGeometry width="50" height="50" relative="1" as="geometry">
            <mxPoint x="800" y="779" as="sourcePoint" />
            <mxPoint x="800" y="299" as="targetPoint" />
          </mxGeometry>
        </mxCell>
        <mxCell id="vwH4FIgHSPhmtw9--yZb-139" value="" style="endArrow=none;html=1;fontSize=32;" edge="1" parent="1">
          <mxGeometry width="50" height="50" relative="1" as="geometry">
            <mxPoint x="730" y="299" as="sourcePoint" />
            <mxPoint x="800" y="299" as="targetPoint" />
          </mxGeometry>
        </mxCell>
        <mxCell id="vwH4FIgHSPhmtw9--yZb-140" value="&lt;font style=&quot;font-size: 26px&quot;&gt;Pre-Charge Array&lt;/font&gt;" style="rounded=0;whiteSpace=wrap;html=1;fontSize=32;" vertex="1" parent="1">
          <mxGeometry x="470" y="69" width="260" height="50" as="geometry" />
        </mxCell>
        <mxCell id="vwH4FIgHSPhmtw9--yZb-147" value="" style="endArrow=none;html=1;fontSize=32;exitX=0.04;exitY=-0.006;exitDx=0;exitDy=0;exitPerimeter=0;startArrow=classicThin;startFill=1;" edge="1" parent="1" source="vwH4FIgHSPhmtw9--yZb-1">
          <mxGeometry width="50" height="50" relative="1" as="geometry">
            <mxPoint x="430" y="169" as="sourcePoint" />
            <mxPoint x="480" y="119" as="targetPoint" />
          </mxGeometry>
        </mxCell>
        <mxCell id="vwH4FIgHSPhmtw9--yZb-148" value="" style="endArrow=none;html=1;fontSize=32;exitX=0.04;exitY=-0.006;exitDx=0;exitDy=0;exitPerimeter=0;startArrow=classicThin;startFill=1;" edge="1" parent="1">
          <mxGeometry width="50" height="50" relative="1" as="geometry">
            <mxPoint x="520.4000000000001" y="157.32000000000005" as="sourcePoint" />
            <mxPoint x="520" y="119" as="targetPoint" />
          </mxGeometry>
        </mxCell>
        <mxCell id="vwH4FIgHSPhmtw9--yZb-149" value="" style="endArrow=none;html=1;fontSize=32;exitX=0.04;exitY=-0.006;exitDx=0;exitDy=0;exitPerimeter=0;startArrow=classicThin;startFill=1;" edge="1" parent="1">
          <mxGeometry width="50" height="50" relative="1" as="geometry">
            <mxPoint x="560.4000000000001" y="159.00000000000006" as="sourcePoint" />
            <mxPoint x="560" y="120.68" as="targetPoint" />
          </mxGeometry>
        </mxCell>
        <mxCell id="vwH4FIgHSPhmtw9--yZb-150" value="" style="endArrow=none;html=1;fontSize=32;exitX=0.04;exitY=-0.006;exitDx=0;exitDy=0;exitPerimeter=0;startArrow=openThin;startFill=0;" edge="1" parent="1">
          <mxGeometry width="50" height="50" relative="1" as="geometry">
            <mxPoint x="599.9000000000001" y="159.00000000000006" as="sourcePoint" />
            <mxPoint x="599.5" y="120.68" as="targetPoint" />
          </mxGeometry>
        </mxCell>
        <mxCell id="vwH4FIgHSPhmtw9--yZb-151" value="" style="endArrow=none;html=1;fontSize=32;exitX=0.04;exitY=-0.006;exitDx=0;exitDy=0;exitPerimeter=0;startArrow=classicThin;startFill=1;" edge="1" parent="1">
          <mxGeometry width="50" height="50" relative="1" as="geometry">
            <mxPoint x="640.4000000000001" y="159.00000000000006" as="sourcePoint" />
            <mxPoint x="640" y="120.68" as="targetPoint" />
          </mxGeometry>
        </mxCell>
        <mxCell id="vwH4FIgHSPhmtw9--yZb-154" value="" style="endArrow=none;html=1;fontSize=32;exitX=0.04;exitY=-0.006;exitDx=0;exitDy=0;exitPerimeter=0;endFill=0;startArrow=classicThin;startFill=1;" edge="1" parent="1">
          <mxGeometry width="50" height="50" relative="1" as="geometry">
            <mxPoint x="679.4000000000001" y="157.32000000000005" as="sourcePoint" />
            <mxPoint x="679" y="119" as="targetPoint" />
          </mxGeometry>
        </mxCell>
        <mxCell id="vwH4FIgHSPhmtw9--yZb-155" value="" style="endArrow=none;html=1;fontSize=32;exitX=0.04;exitY=-0.006;exitDx=0;exitDy=0;exitPerimeter=0;startArrow=blockThin;startFill=1;endFill=0;" edge="1" parent="1">
          <mxGeometry width="50" height="50" relative="1" as="geometry">
            <mxPoint x="719.4000000000001" y="157.32000000000005" as="sourcePoint" />
            <mxPoint x="719" y="119" as="targetPoint" />
          </mxGeometry>
        </mxCell>
        <mxCell id="vwH4FIgHSPhmtw9--yZb-157" style="edgeStyle=orthogonalEdgeStyle;rounded=0;orthogonalLoop=1;jettySize=auto;html=1;exitX=0.25;exitY=0;exitDx=0;exitDy=0;fontSize=32;startArrow=classicThin;startFill=1;endArrow=blockThin;endFill=1;strokeWidth=1;" edge="1" parent="1" source="vwH4FIgHSPhmtw9--yZb-156">
          <mxGeometry relative="1" as="geometry">
            <mxPoint x="535.4705882352941" y="539" as="targetPoint" />
          </mxGeometry>
        </mxCell>
        <mxCell id="vwH4FIgHSPhmtw9--yZb-158" style="edgeStyle=orthogonalEdgeStyle;rounded=0;orthogonalLoop=1;jettySize=auto;html=1;exitX=0.5;exitY=0;exitDx=0;exitDy=0;fontSize=32;startArrow=classicThin;startFill=1;endArrow=none;endFill=0;strokeWidth=1;" edge="1" parent="1" source="vwH4FIgHSPhmtw9--yZb-156">
          <mxGeometry relative="1" as="geometry">
            <mxPoint x="600.1764705882354" y="539" as="targetPoint" />
          </mxGeometry>
        </mxCell>
        <mxCell id="vwH4FIgHSPhmtw9--yZb-159" style="edgeStyle=orthogonalEdgeStyle;rounded=0;orthogonalLoop=1;jettySize=auto;html=1;exitX=0.75;exitY=0;exitDx=0;exitDy=0;fontSize=32;startArrow=classicThin;startFill=1;endArrow=blockThin;endFill=1;strokeWidth=1;" edge="1" parent="1" source="vwH4FIgHSPhmtw9--yZb-156">
          <mxGeometry relative="1" as="geometry">
            <mxPoint x="664.8823529411766" y="539" as="targetPoint" />
          </mxGeometry>
        </mxCell>
        <mxCell id="vwH4FIgHSPhmtw9--yZb-168" style="edgeStyle=orthogonalEdgeStyle;rounded=0;orthogonalLoop=1;jettySize=auto;html=1;exitX=1;exitY=0.5;exitDx=0;exitDy=0;fontSize=32;startArrow=none;startFill=0;endArrow=none;endFill=0;strokeWidth=1;" edge="1" parent="1" source="vwH4FIgHSPhmtw9--yZb-156">
          <mxGeometry relative="1" as="geometry">
            <mxPoint x="800" y="605.4285714285716" as="targetPoint" />
          </mxGeometry>
        </mxCell>
        <mxCell id="vwH4FIgHSPhmtw9--yZb-156" value="&lt;font style=&quot;font-size: 17px&quot;&gt;Write Driver&lt;/font&gt;" style="rounded=0;whiteSpace=wrap;html=1;fontSize=14;" vertex="1" parent="1">
          <mxGeometry x="470" y="576" width="260" height="60" as="geometry" />
        </mxCell>
        <mxCell id="vwH4FIgHSPhmtw9--yZb-164" value="" style="endArrow=none;html=1;fontSize=32;strokeWidth=1;" edge="1" parent="1">
          <mxGeometry width="50" height="50" relative="1" as="geometry">
            <mxPoint x="406" y="699" as="sourcePoint" />
            <mxPoint x="480" y="699" as="targetPoint" />
          </mxGeometry>
        </mxCell>
      </root>
    </mxGraphModel>
  </diagram>
</mxfile>
